<?xml version="1.0" encoding="UTF-8" standalone="no"?>
<!DOCTYPE svg PUBLIC "-//W3C//DTD SVG 1.1//EN"
 "http://www.w3.org/Graphics/SVG/1.1/DTD/svg11.dtd">
<!-- Generated by graphviz version 3.0.0 (20220226.1711)
 -->
<!-- Title: G Pages: 1 -->
<svg width="1659pt" height="653pt"
 viewBox="0.00 0.00 1659.20 653.04" xmlns="http://www.w3.org/2000/svg" xmlns:xlink="http://www.w3.org/1999/xlink">
<g id="graph0" class="graph" transform="scale(1 1) rotate(0) translate(21.6 631.44)">
<title>G</title>
<polygon fill="#111111" stroke="transparent" points="-21.6,21.6 -21.6,-631.44 1637.6,-631.44 1637.6,21.6 -21.6,21.6"/>
<!-- chunks/DraggableWindow&#45;XDEVJ42C.mjs -->
<g id="node1" class="node">
<title>chunks/DraggableWindow&#45;XDEVJ42C.mjs</title>
<path fill="none" stroke="#c6c5fe" d="M530.33,-376.77C530.33,-376.77 273.67,-376.77 273.67,-376.77 269.83,-376.77 266,-372.94 266,-369.1 266,-369.1 266,-361.44 266,-361.44 266,-357.6 269.83,-353.77 273.67,-353.77 273.67,-353.77 530.33,-353.77 530.33,-353.77 534.17,-353.77 538,-357.6 538,-361.44 538,-361.44 538,-369.1 538,-369.1 538,-372.94 534.17,-376.77 530.33,-376.77"/>
<text text-anchor="middle" x="402" y="-361.57" font-family="Arial" font-size="14.00" fill="#c6c5fe">chunks/DraggableWindow&#45;XDEVJ42C.mjs</text>
</g>
<!-- chunks/chunk&#45;26SLPZ5H.mjs -->
<g id="node2" class="node">
<title>chunks/chunk&#45;26SLPZ5H.mjs</title>
<path fill="none" stroke="#c6c5fe" d="M766.83,-357.77C766.83,-357.77 587.17,-357.77 587.17,-357.77 583.33,-357.77 579.5,-353.94 579.5,-350.1 579.5,-350.1 579.5,-342.44 579.5,-342.44 579.5,-338.6 583.33,-334.77 587.17,-334.77 587.17,-334.77 766.83,-334.77 766.83,-334.77 770.67,-334.77 774.5,-338.6 774.5,-342.44 774.5,-342.44 774.5,-350.1 774.5,-350.1 774.5,-353.94 770.67,-357.77 766.83,-357.77"/>
<text text-anchor="middle" x="677" y="-342.57" font-family="Arial" font-size="14.00" fill="#c6c5fe">chunks/chunk&#45;26SLPZ5H.mjs</text>
</g>
<!-- chunks/DraggableWindow&#45;XDEVJ42C.mjs&#45;&gt;chunks/chunk&#45;26SLPZ5H.mjs -->
<g id="edge1" class="edge">
<title>chunks/DraggableWindow&#45;XDEVJ42C.mjs&#45;&gt;chunks/chunk&#45;26SLPZ5H.mjs</title>
<path fill="none" stroke="#757575" d="M538.3,-355.85C548.66,-355.13 559.02,-354.41 569.16,-353.71"/>
<polygon fill="#757575" stroke="#757575" points="569.48,-357.19 579.21,-353.01 568.99,-350.21 569.48,-357.19"/>
</g>
<!-- chunks/chunk&#45;TOGJVKJT.mjs -->
<g id="node3" class="node">
<title>chunks/chunk&#45;TOGJVKJT.mjs</title>
<path fill="none" stroke="#cfffac" d="M1608.33,-319.77C1608.33,-319.77 1425.67,-319.77 1425.67,-319.77 1421.83,-319.77 1418,-315.94 1418,-312.1 1418,-312.1 1418,-304.44 1418,-304.44 1418,-300.6 1421.83,-296.77 1425.67,-296.77 1425.67,-296.77 1608.33,-296.77 1608.33,-296.77 1612.17,-296.77 1616,-300.6 1616,-304.44 1616,-304.44 1616,-312.1 1616,-312.1 1616,-315.94 1612.17,-319.77 1608.33,-319.77"/>
<text text-anchor="middle" x="1517" y="-304.57" font-family="Arial" font-size="14.00" fill="#cfffac">chunks/chunk&#45;TOGJVKJT.mjs</text>
</g>
<!-- chunks/DraggableWindow&#45;XDEVJ42C.mjs&#45;&gt;chunks/chunk&#45;TOGJVKJT.mjs -->
<g id="edge2" class="edge">
<title>chunks/DraggableWindow&#45;XDEVJ42C.mjs&#45;&gt;chunks/chunk&#45;TOGJVKJT.mjs</title>
<path fill="none" stroke="#757575" d="M538.35,-366.14C550.4,-366.19 562.42,-366.24 574,-366.27 933.26,-367.32 1026.64,-396.04 1382,-343.27 1411.92,-338.83 1444.79,-330.3 1470.49,-322.77"/>
<polygon fill="#757575" stroke="#757575" points="1471.74,-326.05 1480.32,-319.84 1469.74,-319.35 1471.74,-326.05"/>
</g>
<!-- chunks/chunk&#45;26SLPZ5H.mjs&#45;&gt;chunks/chunk&#45;TOGJVKJT.mjs -->
<g id="edge4" class="edge">
<title>chunks/chunk&#45;26SLPZ5H.mjs&#45;&gt;chunks/chunk&#45;TOGJVKJT.mjs</title>
<path fill="none" stroke="#757575" d="M774.62,-345.12C910.39,-343.01 1165.29,-337.27 1382,-322.27 1390.3,-321.7 1398.88,-321.01 1407.51,-320.26"/>
<polygon fill="#757575" stroke="#757575" points="1407.99,-323.73 1417.64,-319.34 1407.37,-316.76 1407.99,-323.73"/>
</g>
<!-- chunks/ace&#45;QG6W7LZW.mjs -->
<g id="node4" class="node">
<title>chunks/ace&#45;QG6W7LZW.mjs</title>
<path fill="none" stroke="#c6c5fe" d="M1336.83,-435.77C1336.83,-435.77 1158.17,-435.77 1158.17,-435.77 1154.33,-435.77 1150.5,-431.94 1150.5,-428.1 1150.5,-428.1 1150.5,-420.44 1150.5,-420.44 1150.5,-416.6 1154.33,-412.77 1158.17,-412.77 1158.17,-412.77 1336.83,-412.77 1336.83,-412.77 1340.67,-412.77 1344.5,-416.6 1344.5,-420.44 1344.5,-420.44 1344.5,-428.1 1344.5,-428.1 1344.5,-431.94 1340.67,-435.77 1336.83,-435.77"/>
<text text-anchor="middle" x="1247.5" y="-420.57" font-family="Arial" font-size="14.00" fill="#c6c5fe">chunks/ace&#45;QG6W7LZW.mjs</text>
</g>
<!-- chunks/ace&#45;QG6W7LZW.mjs&#45;&gt;chunks/chunk&#45;TOGJVKJT.mjs -->
<g id="edge3" class="edge">
<title>chunks/ace&#45;QG6W7LZW.mjs&#45;&gt;chunks/chunk&#45;TOGJVKJT.mjs</title>
<path fill="none" stroke="#757575" d="M1334.74,-412.72C1350.79,-409.11 1367.16,-404.4 1382,-398.27 1425.51,-380.29 1469.63,-347.15 1494.81,-326.49"/>
<polygon fill="#757575" stroke="#757575" points="1497.16,-329.09 1502.6,-320 1492.68,-323.71 1497.16,-329.09"/>
</g>
<!-- chunks/chunk&#45;2EC3UX5J.mjs -->
<g id="node5" class="node">
<title>chunks/chunk&#45;2EC3UX5J.mjs</title>
<path fill="none" stroke="#c6c5fe" d="M767.33,-221.77C767.33,-221.77 586.67,-221.77 586.67,-221.77 582.83,-221.77 579,-217.94 579,-214.1 579,-214.1 579,-206.44 579,-206.44 579,-202.6 582.83,-198.77 586.67,-198.77 586.67,-198.77 767.33,-198.77 767.33,-198.77 771.17,-198.77 775,-202.6 775,-206.44 775,-206.44 775,-214.1 775,-214.1 775,-217.94 771.17,-221.77 767.33,-221.77"/>
<text text-anchor="middle" x="677" y="-206.57" font-family="Arial" font-size="14.00" fill="#c6c5fe">chunks/chunk&#45;2EC3UX5J.mjs</text>
</g>
<!-- chunks/chunk&#45;2EC3UX5J.mjs&#45;&gt;chunks/chunk&#45;TOGJVKJT.mjs -->
<g id="edge5" class="edge">
<title>chunks/chunk&#45;2EC3UX5J.mjs&#45;&gt;chunks/chunk&#45;TOGJVKJT.mjs</title>
<path fill="none" stroke="#757575" d="M742.15,-198.7C868.34,-178.59 1156.21,-145.83 1382,-218.27 1427.55,-232.89 1471.94,-268.03 1496.46,-289.82"/>
<polygon fill="#757575" stroke="#757575" points="1494.22,-292.52 1503.98,-296.65 1498.93,-287.34 1494.22,-292.52"/>
</g>
<!-- chunks/prettierEsm&#45;EJS342UP.mjs -->
<g id="node6" class="node">
<title>chunks/prettierEsm&#45;EJS342UP.mjs</title>
<path fill="none" stroke="#c6c5fe" d="M1052.33,-241.77C1052.33,-241.77 840.67,-241.77 840.67,-241.77 836.83,-241.77 833,-237.94 833,-234.1 833,-234.1 833,-226.44 833,-226.44 833,-222.6 836.83,-218.77 840.67,-218.77 840.67,-218.77 1052.33,-218.77 1052.33,-218.77 1056.17,-218.77 1060,-222.6 1060,-226.44 1060,-226.44 1060,-234.1 1060,-234.1 1060,-237.94 1056.17,-241.77 1052.33,-241.77"/>
<text text-anchor="middle" x="946.5" y="-226.57" font-family="Arial" font-size="14.00" fill="#c6c5fe">chunks/prettierEsm&#45;EJS342UP.mjs</text>
</g>
<!-- chunks/chunk&#45;2EC3UX5J.mjs&#45;&gt;chunks/prettierEsm&#45;EJS342UP.mjs -->
<g id="edge6" class="edge">
<title>chunks/chunk&#45;2EC3UX5J.mjs&#45;&gt;chunks/prettierEsm&#45;EJS342UP.mjs</title>
<path fill="none" stroke="#757575" d="M775.33,-217.55C790.65,-218.69 806.66,-219.89 822.46,-221.07"/>
<polygon fill="#757575" stroke="#757575" points="822.58,-224.59 832.81,-221.85 823.1,-217.61 822.58,-224.59"/>
</g>
<!-- chunks/prettierEsm&#45;EJS342UP.mjs&#45;&gt;chunks/chunk&#45;TOGJVKJT.mjs -->
<g id="edge18" class="edge">
<title>chunks/prettierEsm&#45;EJS342UP.mjs&#45;&gt;chunks/chunk&#45;TOGJVKJT.mjs</title>
<path fill="none" stroke="#757575" d="M1060.28,-222.87C1148.95,-219.86 1274.95,-221.85 1382,-247.27 1420.54,-256.42 1461.52,-276.85 1487.87,-291.54"/>
<polygon fill="#757575" stroke="#757575" points="1486.46,-294.77 1496.88,-296.67 1489.92,-288.68 1486.46,-294.77"/>
</g>
<!-- chunks/chunk&#45;HGH6KN2Q.mjs -->
<g id="node11" class="node">
<title>chunks/chunk&#45;HGH6KN2Q.mjs</title>
<path fill="none" stroke="#c6c5fe" d="M1342.33,-279.77C1342.33,-279.77 1152.67,-279.77 1152.67,-279.77 1148.83,-279.77 1145,-275.94 1145,-272.1 1145,-272.1 1145,-264.44 1145,-264.44 1145,-260.6 1148.83,-256.77 1152.67,-256.77 1152.67,-256.77 1342.33,-256.77 1342.33,-256.77 1346.17,-256.77 1350,-260.6 1350,-264.44 1350,-264.44 1350,-272.1 1350,-272.1 1350,-275.94 1346.17,-279.77 1342.33,-279.77"/>
<text text-anchor="middle" x="1247.5" y="-264.57" font-family="Arial" font-size="14.00" fill="#c6c5fe">chunks/chunk&#45;HGH6KN2Q.mjs</text>
</g>
<!-- chunks/prettierEsm&#45;EJS342UP.mjs&#45;&gt;chunks/chunk&#45;HGH6KN2Q.mjs -->
<g id="edge17" class="edge">
<title>chunks/prettierEsm&#45;EJS342UP.mjs&#45;&gt;chunks/chunk&#45;HGH6KN2Q.mjs</title>
<path fill="none" stroke="#757575" d="M1038.02,-241.78C1071.97,-246.09 1110.75,-251.02 1145.58,-255.44"/>
<polygon fill="#757575" stroke="#757575" points="1145.41,-258.95 1155.77,-256.74 1146.29,-252.01 1145.41,-258.95"/>
</g>
<!-- chunks/chunk&#45;DIXWQ3SD.mjs -->
<g id="node7" class="node">
<title>chunks/chunk&#45;DIXWQ3SD.mjs</title>
<path fill="none" stroke="#ff6c60" d="M495.83,-162.77C495.83,-162.77 308.17,-162.77 308.17,-162.77 304.33,-162.77 300.5,-158.94 300.5,-155.1 300.5,-155.1 300.5,-147.44 300.5,-147.44 300.5,-143.6 304.33,-139.77 308.17,-139.77 308.17,-139.77 495.83,-139.77 495.83,-139.77 499.67,-139.77 503.5,-143.6 503.5,-147.44 503.5,-147.44 503.5,-155.1 503.5,-155.1 503.5,-158.94 499.67,-162.77 495.83,-162.77"/>
<text text-anchor="middle" x="402" y="-147.57" font-family="Arial" font-size="14.00" fill="#ff6c60">chunks/chunk&#45;DIXWQ3SD.mjs</text>
</g>
<!-- chunks/chunk&#45;DIXWQ3SD.mjs&#45;&gt;chunks/chunk&#45;TOGJVKJT.mjs -->
<g id="edge9" class="edge">
<title>chunks/chunk&#45;DIXWQ3SD.mjs&#45;&gt;chunks/chunk&#45;TOGJVKJT.mjs</title>
<path fill="none" stroke="#757575" d="M485.15,-139.76C691.48,-112.37 1226.08,-51.22 1382,-129.27 1448.92,-162.77 1491.04,-247.32 1507.76,-287.04"/>
<polygon fill="#757575" stroke="#757575" points="1504.62,-288.6 1511.64,-296.54 1511.1,-285.96 1504.62,-288.6"/>
</g>
<!-- chunks/chunk&#45;DIXWQ3SD.mjs&#45;&gt;chunks/chunk&#45;2EC3UX5J.mjs -->
<g id="edge7" class="edge">
<title>chunks/chunk&#45;DIXWQ3SD.mjs&#45;&gt;chunks/chunk&#45;2EC3UX5J.mjs</title>
<path fill="none" stroke="#757575" d="M456.29,-162.79C501.05,-172.46 565.12,-186.31 612.53,-196.55"/>
<polygon fill="#757575" stroke="#757575" points="611.87,-199.99 622.38,-198.68 613.35,-193.15 611.87,-199.99"/>
</g>
<!-- chunks/chunk&#45;NCQNU3CH.mjs -->
<g id="node8" class="node">
<title>chunks/chunk&#45;NCQNU3CH.mjs</title>
<path fill="none" stroke="#c6c5fe" d="M772.33,-84.77C772.33,-84.77 581.67,-84.77 581.67,-84.77 577.83,-84.77 574,-80.94 574,-77.1 574,-77.1 574,-69.44 574,-69.44 574,-65.6 577.83,-61.77 581.67,-61.77 581.67,-61.77 772.33,-61.77 772.33,-61.77 776.17,-61.77 780,-65.6 780,-69.44 780,-69.44 780,-77.1 780,-77.1 780,-80.94 776.17,-84.77 772.33,-84.77"/>
<text text-anchor="middle" x="677" y="-69.57" font-family="Arial" font-size="14.00" fill="#c6c5fe">chunks/chunk&#45;NCQNU3CH.mjs</text>
</g>
<!-- chunks/chunk&#45;DIXWQ3SD.mjs&#45;&gt;chunks/chunk&#45;NCQNU3CH.mjs -->
<g id="edge8" class="edge">
<title>chunks/chunk&#45;DIXWQ3SD.mjs&#45;&gt;chunks/chunk&#45;NCQNU3CH.mjs</title>
<path fill="none" stroke="#757575" d="M492.53,-139.73C508.05,-136.13 523.76,-131.42 538,-125.27 556.12,-117.44 556.12,-107.63 574,-99.27 583.82,-94.68 594.57,-90.82 605.29,-87.59"/>
<polygon fill="#757575" stroke="#757575" points="606.43,-90.91 615.1,-84.81 604.52,-84.17 606.43,-90.91"/>
</g>
<!-- chunks/ipfs&#45;XS646A2L.mjs -->
<g id="node9" class="node">
<title>chunks/ipfs&#45;XS646A2L.mjs</title>
<path fill="none" stroke="#c6c5fe" d="M1028.33,-161.77C1028.33,-161.77 864.67,-161.77 864.67,-161.77 860.83,-161.77 857,-157.94 857,-154.1 857,-154.1 857,-146.44 857,-146.44 857,-142.6 860.83,-138.77 864.67,-138.77 864.67,-138.77 1028.33,-138.77 1028.33,-138.77 1032.17,-138.77 1036,-142.6 1036,-146.44 1036,-146.44 1036,-154.1 1036,-154.1 1036,-157.94 1032.17,-161.77 1028.33,-161.77"/>
<text text-anchor="middle" x="946.5" y="-146.57" font-family="Arial" font-size="14.00" fill="#c6c5fe">chunks/ipfs&#45;XS646A2L.mjs</text>
</g>
<!-- chunks/chunk&#45;DIXWQ3SD.mjs&#45;&gt;chunks/ipfs&#45;XS646A2L.mjs -->
<g id="edge10" class="edge">
<title>chunks/chunk&#45;DIXWQ3SD.mjs&#45;&gt;chunks/ipfs&#45;XS646A2L.mjs</title>
<path fill="none" stroke="#757575" d="M503.77,-151.09C601.73,-150.9 749.57,-150.63 846.81,-150.45"/>
<polygon fill="#757575" stroke="#757575" points="846.95,-153.95 856.94,-150.43 846.94,-146.95 846.95,-153.95"/>
</g>
<!-- chunks/quickStart&#45;O3MHU5YN.mjs -->
<g id="node10" class="node">
<title>chunks/quickStart&#45;O3MHU5YN.mjs</title>
<path fill="none" stroke="#ff6c60" d="M222.33,-376.77C222.33,-376.77 7.67,-376.77 7.67,-376.77 3.83,-376.77 0,-372.94 0,-369.1 0,-369.1 0,-361.44 0,-361.44 0,-357.6 3.83,-353.77 7.67,-353.77 7.67,-353.77 222.33,-353.77 222.33,-353.77 226.17,-353.77 230,-357.6 230,-361.44 230,-361.44 230,-369.1 230,-369.1 230,-372.94 226.17,-376.77 222.33,-376.77"/>
<text text-anchor="middle" x="115" y="-361.57" font-family="Arial" font-size="14.00" fill="#ff6c60">chunks/quickStart&#45;O3MHU5YN.mjs</text>
</g>
<!-- chunks/chunk&#45;DIXWQ3SD.mjs&#45;&gt;chunks/quickStart&#45;O3MHU5YN.mjs -->
<g id="edge11" class="edge">
<title>chunks/chunk&#45;DIXWQ3SD.mjs&#45;&gt;chunks/quickStart&#45;O3MHU5YN.mjs</title>
<path fill="none" stroke="#757575" d="M391.5,-163.01C369.44,-183.83 313.05,-225.95 266,-261.27 225.3,-291.83 178.47,-327.13 148.11,-347.99"/>
<polygon fill="#757575" stroke="#757575" points="145.95,-345.23 139.62,-353.73 149.87,-351.03 145.95,-345.23"/>
</g>
<!-- chunks/chunk&#45;NCQNU3CH.mjs&#45;&gt;chunks/chunk&#45;TOGJVKJT.mjs -->
<g id="edge13" class="edge">
<title>chunks/chunk&#45;NCQNU3CH.mjs&#45;&gt;chunks/chunk&#45;TOGJVKJT.mjs</title>
<path fill="none" stroke="#757575" d="M780.19,-65.14C950.21,-53.49 1282.37,-39.24 1382,-96.27 1456.71,-139.03 1495.94,-242.18 1509.94,-286.95"/>
<polygon fill="#757575" stroke="#757575" points="1506.66,-288.19 1512.89,-296.76 1513.36,-286.18 1506.66,-288.19"/>
</g>
<!-- chunks/ipfs&#45;XS646A2L.mjs&#45;&gt;chunks/chunk&#45;TOGJVKJT.mjs -->
<g id="edge15" class="edge">
<title>chunks/ipfs&#45;XS646A2L.mjs&#45;&gt;chunks/chunk&#45;TOGJVKJT.mjs</title>
<path fill="none" stroke="#757575" d="M1028.35,-138.74C1118.73,-129.47 1267.4,-125.25 1382,-176.27 1436.61,-200.58 1481.64,-257.62 1502.87,-288.15"/>
<polygon fill="#757575" stroke="#757575" points="1500.16,-290.4 1508.67,-296.71 1505.95,-286.47 1500.16,-290.4"/>
</g>
<!-- chunks/quickStart&#45;O3MHU5YN.mjs&#45;&gt;chunks/DraggableWindow&#45;XDEVJ42C.mjs -->
<g id="edge19" class="edge">
<title>chunks/quickStart&#45;O3MHU5YN.mjs&#45;&gt;chunks/DraggableWindow&#45;XDEVJ42C.mjs</title>
<path fill="none" stroke="#757575" d="M230.28,-365.27C238.54,-365.27 246.92,-365.27 255.33,-365.27"/>
<polygon fill="#757575" stroke="#757575" points="255.58,-368.77 265.58,-365.27 255.58,-361.77 255.58,-368.77"/>
</g>
<!-- chunks/quickStart&#45;O3MHU5YN.mjs&#45;&gt;chunks/chunk&#45;TOGJVKJT.mjs -->
<g id="edge24" class="edge">
<title>chunks/quickStart&#45;O3MHU5YN.mjs&#45;&gt;chunks/chunk&#45;TOGJVKJT.mjs</title>
<path fill="none" stroke="#757575" d="M121.35,-377.11C137.47,-411.2 189.23,-509.7 266,-550.27 427.67,-635.7 493.15,-584.27 676,-584.27 676,-584.27 676,-584.27 947.5,-584.27 1141.1,-584.27 1219.09,-657.87 1382,-553.27 1464.11,-500.55 1499.94,-379.28 1511.51,-329.84"/>
<polygon fill="#757575" stroke="#757575" points="1514.96,-330.44 1513.72,-319.92 1508.13,-328.92 1514.96,-330.44"/>
</g>
<!-- chunks/quickStart&#45;O3MHU5YN.mjs&#45;&gt;chunks/ace&#45;QG6W7LZW.mjs -->
<g id="edge20" class="edge">
<title>chunks/quickStart&#45;O3MHU5YN.mjs&#45;&gt;chunks/ace&#45;QG6W7LZW.mjs</title>
<path fill="none" stroke="#757575" d="M192.16,-376.82C215.77,-380.02 241.92,-383.19 266,-385.27 583.33,-412.68 960.13,-420.85 1140.28,-423.27"/>
<polygon fill="#757575" stroke="#757575" points="1140.24,-426.77 1150.28,-423.4 1140.33,-419.77 1140.24,-426.77"/>
</g>
<!-- chunks/quickStart&#45;O3MHU5YN.mjs&#45;&gt;chunks/chunk&#45;2EC3UX5J.mjs -->
<g id="edge21" class="edge">
<title>chunks/quickStart&#45;O3MHU5YN.mjs&#45;&gt;chunks/chunk&#45;2EC3UX5J.mjs</title>
<path fill="none" stroke="#757575" d="M133.64,-353.51C160.86,-335.93 215.28,-302.95 266,-285.27 365.64,-250.54 484.8,-231.04 568.91,-220.69"/>
<polygon fill="#757575" stroke="#757575" points="569.48,-224.14 578.99,-219.47 568.64,-217.19 569.48,-224.14"/>
</g>
<!-- chunks/quickStart&#45;O3MHU5YN.mjs&#45;&gt;chunks/chunk&#45;DIXWQ3SD.mjs -->
<g id="edge22" class="edge">
<title>chunks/quickStart&#45;O3MHU5YN.mjs&#45;&gt;chunks/chunk&#45;DIXWQ3SD.mjs</title>
<path fill="none" stroke="#757575" d="M125.47,-353.67C149.14,-331.25 212.81,-283.2 266,-243.27 300.85,-217.11 340.83,-187.21 368.18,-168.55"/>
<polygon fill="#757575" stroke="#757575" points="370.24,-171.38 376.59,-162.9 366.34,-165.57 370.24,-171.38"/>
</g>
<!-- chunks/quickStart&#45;O3MHU5YN.mjs&#45;&gt;chunks/chunk&#45;NCQNU3CH.mjs -->
<g id="edge23" class="edge">
<title>chunks/quickStart&#45;O3MHU5YN.mjs&#45;&gt;chunks/chunk&#45;NCQNU3CH.mjs</title>
<path fill="none" stroke="#757575" d="M119.45,-353.66C131.78,-314.38 177.72,-185.83 266,-130.27 317.53,-97.84 477.76,-106.16 538,-97.27 559.39,-94.12 582.57,-90.26 603.72,-86.56"/>
<polygon fill="#757575" stroke="#757575" points="604.35,-90.01 613.6,-84.82 603.14,-83.11 604.35,-90.01"/>
</g>
<!-- chunks/esbuildEsm&#45;BUXFOPFO.mjs -->
<g id="node12" class="node">
<title>chunks/esbuildEsm&#45;BUXFOPFO.mjs</title>
<path fill="none" stroke="#c6c5fe" d="M1058.33,-555.77C1058.33,-555.77 834.67,-555.77 834.67,-555.77 830.83,-555.77 827,-551.94 827,-548.1 827,-548.1 827,-540.44 827,-540.44 827,-536.6 830.83,-532.77 834.67,-532.77 834.67,-532.77 1058.33,-532.77 1058.33,-532.77 1062.17,-532.77 1066,-536.6 1066,-540.44 1066,-540.44 1066,-548.1 1066,-548.1 1066,-551.94 1062.17,-555.77 1058.33,-555.77"/>
<text text-anchor="middle" x="946.5" y="-540.57" font-family="Arial" font-size="14.00" fill="#c6c5fe">chunks/esbuildEsm&#45;BUXFOPFO.mjs</text>
</g>
<!-- chunks/quickStart&#45;O3MHU5YN.mjs&#45;&gt;chunks/esbuildEsm&#45;BUXFOPFO.mjs -->
<g id="edge25" class="edge">
<title>chunks/quickStart&#45;O3MHU5YN.mjs&#45;&gt;chunks/esbuildEsm&#45;BUXFOPFO.mjs</title>
<path fill="none" stroke="#757575" d="M122.91,-376.95C141.5,-407.08 195.93,-487.25 266,-518.27 361.14,-560.39 647.43,-556.83 816.52,-550.53"/>
<polygon fill="#757575" stroke="#757575" points="816.88,-554.02 826.73,-550.14 816.61,-547.03 816.88,-554.02"/>
</g>
<!-- chunks/mode&#45;typescript&#45;UMBYOL5W.mjs -->
<g id="node13" class="node">
<title>chunks/mode&#45;typescript&#45;UMBYOL5W.mjs</title>
<path fill="none" stroke="#c6c5fe" d="M1374.33,-515.77C1374.33,-515.77 1120.67,-515.77 1120.67,-515.77 1116.83,-515.77 1113,-511.94 1113,-508.1 1113,-508.1 1113,-500.44 1113,-500.44 1113,-496.6 1116.83,-492.77 1120.67,-492.77 1120.67,-492.77 1374.33,-492.77 1374.33,-492.77 1378.17,-492.77 1382,-496.6 1382,-500.44 1382,-500.44 1382,-508.1 1382,-508.1 1382,-511.94 1378.17,-515.77 1374.33,-515.77"/>
<text text-anchor="middle" x="1247.5" y="-500.57" font-family="Arial" font-size="14.00" fill="#c6c5fe">chunks/mode&#45;typescript&#45;UMBYOL5W.mjs</text>
</g>
<!-- chunks/quickStart&#45;O3MHU5YN.mjs&#45;&gt;chunks/mode&#45;typescript&#45;UMBYOL5W.mjs -->
<g id="edge26" class="edge">
<title>chunks/quickStart&#45;O3MHU5YN.mjs&#45;&gt;chunks/mode&#45;typescript&#45;UMBYOL5W.mjs</title>
<path fill="none" stroke="#757575" d="M127.5,-376.94C151.02,-399.93 207.35,-450.63 266,-471.27 415.9,-524.03 868.22,-517.41 1102.45,-509.94"/>
<polygon fill="#757575" stroke="#757575" points="1102.86,-513.43 1112.75,-509.61 1102.64,-506.43 1102.86,-513.43"/>
</g>
<!-- chunks/renderToString&#45;K4DCVZJ5.mjs -->
<g id="node14" class="node">
<title>chunks/renderToString&#45;K4DCVZJ5.mjs</title>
<path fill="none" stroke="#c6c5fe" d="M518.83,-317.77C518.83,-317.77 285.17,-317.77 285.17,-317.77 281.33,-317.77 277.5,-313.94 277.5,-310.1 277.5,-310.1 277.5,-302.44 277.5,-302.44 277.5,-298.6 281.33,-294.77 285.17,-294.77 285.17,-294.77 518.83,-294.77 518.83,-294.77 522.67,-294.77 526.5,-298.6 526.5,-302.44 526.5,-302.44 526.5,-310.1 526.5,-310.1 526.5,-313.94 522.67,-317.77 518.83,-317.77"/>
<text text-anchor="middle" x="402" y="-302.57" font-family="Arial" font-size="14.00" fill="#c6c5fe">chunks/renderToString&#45;K4DCVZJ5.mjs</text>
</g>
<!-- chunks/quickStart&#45;O3MHU5YN.mjs&#45;&gt;chunks/renderToString&#45;K4DCVZJ5.mjs -->
<g id="edge27" class="edge">
<title>chunks/quickStart&#45;O3MHU5YN.mjs&#45;&gt;chunks/renderToString&#45;K4DCVZJ5.mjs</title>
<path fill="none" stroke="#757575" d="M171.63,-353.76C218.46,-344.06 285.53,-330.18 335.05,-319.92"/>
<polygon fill="#757575" stroke="#757575" points="335.94,-323.31 345.03,-317.86 334.52,-316.46 335.94,-323.31"/>
</g>
<!-- chunks/theme&#45;monokai&#45;ZQWZ44C2.mjs -->
<g id="node15" class="node">
<title>chunks/theme&#45;monokai&#45;ZQWZ44C2.mjs</title>
<path fill="none" stroke="#c6c5fe" d="M1069.33,-475.77C1069.33,-475.77 823.67,-475.77 823.67,-475.77 819.83,-475.77 816,-471.94 816,-468.1 816,-468.1 816,-460.44 816,-460.44 816,-456.6 819.83,-452.77 823.67,-452.77 823.67,-452.77 1069.33,-452.77 1069.33,-452.77 1073.17,-452.77 1077,-456.6 1077,-460.44 1077,-460.44 1077,-468.1 1077,-468.1 1077,-471.94 1073.17,-475.77 1069.33,-475.77"/>
<text text-anchor="middle" x="946.5" y="-460.57" font-family="Arial" font-size="14.00" fill="#c6c5fe">chunks/theme&#45;monokai&#45;ZQWZ44C2.mjs</text>
</g>
<!-- chunks/quickStart&#45;O3MHU5YN.mjs&#45;&gt;chunks/theme&#45;monokai&#45;ZQWZ44C2.mjs -->
<g id="edge28" class="edge">
<title>chunks/quickStart&#45;O3MHU5YN.mjs&#45;&gt;chunks/theme&#45;monokai&#45;ZQWZ44C2.mjs</title>
<path fill="none" stroke="#757575" d="M133.54,-376.83C160.63,-393.97 214.87,-425.46 266,-438.27 448.24,-483.95 666.49,-482.88 805.56,-475.54"/>
<polygon fill="#757575" stroke="#757575" points="806.05,-479.02 815.85,-474.97 805.67,-472.03 806.05,-479.02"/>
</g>
<!-- chunks/chunk&#45;HGH6KN2Q.mjs&#45;&gt;chunks/chunk&#45;TOGJVKJT.mjs -->
<g id="edge12" class="edge">
<title>chunks/chunk&#45;HGH6KN2Q.mjs&#45;&gt;chunks/chunk&#45;TOGJVKJT.mjs</title>
<path fill="none" stroke="#757575" d="M1325.51,-279.79C1357.82,-284.62 1395.56,-290.26 1428.88,-295.24"/>
<polygon fill="#757575" stroke="#757575" points="1428.66,-298.75 1439.07,-296.77 1429.69,-291.83 1428.66,-298.75"/>
</g>
<!-- chunks/esbuildEsm&#45;BUXFOPFO.mjs&#45;&gt;chunks/chunk&#45;TOGJVKJT.mjs -->
<g id="edge14" class="edge">
<title>chunks/esbuildEsm&#45;BUXFOPFO.mjs&#45;&gt;chunks/chunk&#45;TOGJVKJT.mjs</title>
<path fill="none" stroke="#757575" d="M1066.11,-550.96C1176.13,-555.01 1330.39,-554.56 1382,-524.27 1457.4,-480.01 1496.35,-374.89 1510.11,-329.62"/>
<polygon fill="#757575" stroke="#757575" points="1513.49,-330.53 1512.94,-319.94 1506.77,-328.56 1513.49,-330.53"/>
</g>
<!-- chunks/mode&#45;typescript&#45;UMBYOL5W.mjs&#45;&gt;chunks/chunk&#45;TOGJVKJT.mjs -->
<g id="edge16" class="edge">
<title>chunks/mode&#45;typescript&#45;UMBYOL5W.mjs&#45;&gt;chunks/chunk&#45;TOGJVKJT.mjs</title>
<path fill="none" stroke="#757575" d="M1349.48,-492.69C1360.91,-489.06 1372.02,-484.36 1382,-478.27 1442.7,-441.24 1486.87,-366.08 1505.79,-329.38"/>
<polygon fill="#757575" stroke="#757575" points="1509.09,-330.62 1510.45,-320.12 1502.83,-327.48 1509.09,-330.62"/>
</g>
<!-- chunks/renderToString&#45;K4DCVZJ5.mjs&#45;&gt;chunks/chunk&#45;26SLPZ5H.mjs -->
<g id="edge29" class="edge">
<title>chunks/renderToString&#45;K4DCVZJ5.mjs&#45;&gt;chunks/chunk&#45;26SLPZ5H.mjs</title>
<path fill="none" stroke="#757575" d="M481.6,-317.79C514.71,-322.64 553.41,-328.31 587.53,-333.31"/>
<polygon fill="#757575" stroke="#757575" points="587.08,-336.78 597.49,-334.77 588.1,-329.85 587.08,-336.78"/>
</g>
<!-- chunks/renderToString&#45;K4DCVZJ5.mjs&#45;&gt;chunks/chunk&#45;TOGJVKJT.mjs -->
<g id="edge32" class="edge">
<title>chunks/renderToString&#45;K4DCVZJ5.mjs&#45;&gt;chunks/chunk&#45;TOGJVKJT.mjs</title>
<path fill="none" stroke="#757575" d="M526.63,-306.49C746.02,-306.89 1199.84,-307.7 1407.72,-308.08"/>
<polygon fill="#757575" stroke="#757575" points="1407.73,-311.58 1417.74,-308.09 1407.74,-304.58 1407.73,-311.58"/>
</g>
<!-- chunks/renderToString&#45;K4DCVZJ5.mjs&#45;&gt;chunks/chunk&#45;2EC3UX5J.mjs -->
<g id="edge30" class="edge">
<title>chunks/renderToString&#45;K4DCVZJ5.mjs&#45;&gt;chunks/chunk&#45;2EC3UX5J.mjs</title>
<path fill="none" stroke="#757575" d="M492.53,-294.73C508.05,-291.13 523.76,-286.42 538,-280.27 556.12,-272.44 556.84,-264.02 574,-254.27 593.37,-243.27 616.02,-233.24 635.05,-225.55"/>
<polygon fill="#757575" stroke="#757575" points="636.35,-228.8 644.35,-221.85 633.77,-222.29 636.35,-228.8"/>
</g>
<!-- chunks/renderToString&#45;K4DCVZJ5.mjs&#45;&gt;chunks/chunk&#45;HGH6KN2Q.mjs -->
<g id="edge31" class="edge">
<title>chunks/renderToString&#45;K4DCVZJ5.mjs&#45;&gt;chunks/chunk&#45;HGH6KN2Q.mjs</title>
<path fill="none" stroke="#757575" d="M526.71,-295.46C542.61,-294.27 558.69,-293.17 574,-292.27 771.07,-280.69 1000.97,-273.94 1134.51,-270.69"/>
<polygon fill="#757575" stroke="#757575" points="1134.83,-274.19 1144.75,-270.44 1134.67,-267.19 1134.83,-274.19"/>
</g>
<!-- chunks/theme&#45;monokai&#45;ZQWZ44C2.mjs&#45;&gt;chunks/chunk&#45;TOGJVKJT.mjs -->
<g id="edge33" class="edge">
<title>chunks/theme&#45;monokai&#45;ZQWZ44C2.mjs&#45;&gt;chunks/chunk&#45;TOGJVKJT.mjs</title>
<path fill="none" stroke="#757575" d="M1077.08,-468.6C1185.05,-470.33 1329.37,-467.74 1382,-444.27 1437.69,-419.44 1482.54,-360.06 1503.37,-328.62"/>
<polygon fill="#757575" stroke="#757575" points="1506.57,-330.12 1509.05,-319.82 1500.69,-326.32 1506.57,-330.12"/>
</g>
<!-- ws.mjs -->
<g id="node16" class="node">
<title>ws.mjs</title>
<path fill="none" stroke="#c6c5fe" d="M136.83,-123.77C136.83,-123.77 93.17,-123.77 93.17,-123.77 89.33,-123.77 85.5,-119.94 85.5,-116.1 85.5,-116.1 85.5,-108.44 85.5,-108.44 85.5,-104.6 89.33,-100.77 93.17,-100.77 93.17,-100.77 136.83,-100.77 136.83,-100.77 140.67,-100.77 144.5,-104.6 144.5,-108.44 144.5,-108.44 144.5,-116.1 144.5,-116.1 144.5,-119.94 140.67,-123.77 136.83,-123.77"/>
<text text-anchor="middle" x="115" y="-108.57" font-family="Arial" font-size="14.00" fill="#c6c5fe">ws.mjs</text>
</g>
<!-- ws.mjs&#45;&gt;chunks/chunk&#45;TOGJVKJT.mjs -->
<g id="edge37" class="edge">
<title>ws.mjs&#45;&gt;chunks/chunk&#45;TOGJVKJT.mjs</title>
<path fill="none" stroke="#757575" d="M144.54,-104.51C174.57,-96.61 223.29,-84.52 266,-77.27 446.69,-46.61 492.73,-33.27 676,-33.27 676,-33.27 676,-33.27 947.5,-33.27 1140.78,-33.27 1218.84,52.34 1382,-51.27 1468.07,-105.93 1501.84,-235.08 1512.18,-286.55"/>
<polygon fill="#757575" stroke="#757575" points="1508.78,-287.39 1514.09,-296.56 1515.65,-286.08 1508.78,-287.39"/>
</g>
<!-- ws.mjs&#45;&gt;chunks/chunk&#45;2EC3UX5J.mjs -->
<g id="edge34" class="edge">
<title>ws.mjs&#45;&gt;chunks/chunk&#45;2EC3UX5J.mjs</title>
<path fill="none" stroke="#757575" d="M139.24,-123.78C168.17,-137.55 219.46,-160.14 266,-171.27 366.9,-195.41 485.14,-204.71 568.65,-208.24"/>
<polygon fill="#757575" stroke="#757575" points="568.52,-211.74 578.65,-208.65 568.8,-204.75 568.52,-211.74"/>
</g>
<!-- ws.mjs&#45;&gt;chunks/chunk&#45;DIXWQ3SD.mjs -->
<g id="edge35" class="edge">
<title>ws.mjs&#45;&gt;chunks/chunk&#45;DIXWQ3SD.mjs</title>
<path fill="none" stroke="#757575" d="M144.63,-116.19C182.25,-121.34 250.16,-130.63 306.64,-138.36"/>
<polygon fill="#757575" stroke="#757575" points="306.3,-141.84 316.68,-139.73 307.25,-134.91 306.3,-141.84"/>
</g>
<!-- ws.mjs&#45;&gt;chunks/chunk&#45;NCQNU3CH.mjs -->
<g id="edge36" class="edge">
<title>ws.mjs&#45;&gt;chunks/chunk&#45;NCQNU3CH.mjs</title>
<path fill="none" stroke="#757575" d="M144.72,-109.04C174.89,-105.74 223.73,-100.62 266,-97.27 366.64,-89.3 481.38,-82.8 563.84,-78.59"/>
<polygon fill="#757575" stroke="#757575" points="564.17,-82.08 573.98,-78.07 563.82,-75.08 564.17,-82.08"/>
</g>
</g>
</svg>
