<?xml version="1.0" encoding="UTF-8" standalone="no"?>
<!DOCTYPE svg PUBLIC "-//W3C//DTD SVG 1.1//EN"
 "http://www.w3.org/Graphics/SVG/1.1/DTD/svg11.dtd">
<!-- Generated by graphviz version 3.0.0 (20220226.1711)
 -->
<!-- Title: G Pages: 1 -->
<svg width="2666pt" height="861pt"
 viewBox="0.00 0.00 2666.20 860.83" xmlns="http://www.w3.org/2000/svg" xmlns:xlink="http://www.w3.org/1999/xlink">
<g id="graph0" class="graph" transform="scale(1 1) rotate(0) translate(21.6 839.23)">
<title>G</title>
<polygon fill="#111111" stroke="transparent" points="-21.6,21.6 -21.6,-839.23 2644.6,-839.23 2644.6,21.6 -21.6,21.6"/>
<!-- chunks/AceEditor&#45;ISYMSWMV.mjs -->
<g id="node1" class="node">
<title>chunks/AceEditor&#45;ISYMSWMV.mjs</title>
<path fill="none" stroke="#ff6c60" d="M220.33,-553.31C220.33,-553.31 7.67,-553.31 7.67,-553.31 3.83,-553.31 0,-549.48 0,-545.65 0,-545.65 0,-537.98 0,-537.98 0,-534.15 3.83,-530.31 7.67,-530.31 7.67,-530.31 220.33,-530.31 220.33,-530.31 224.17,-530.31 228,-534.15 228,-537.98 228,-537.98 228,-545.65 228,-545.65 228,-549.48 224.17,-553.31 220.33,-553.31"/>
<text text-anchor="middle" x="114" y="-538.11" font-family="Arial" font-size="14.00" fill="#ff6c60">chunks/AceEditor&#45;ISYMSWMV.mjs</text>
</g>
<!-- chunks/ace&#45;QG6W7LZW.mjs -->
<g id="node2" class="node">
<title>chunks/ace&#45;QG6W7LZW.mjs</title>
<path fill="none" stroke="#c6c5fe" d="M1249.33,-686.31C1249.33,-686.31 1070.67,-686.31 1070.67,-686.31 1066.83,-686.31 1063,-682.48 1063,-678.65 1063,-678.65 1063,-670.98 1063,-670.98 1063,-667.15 1066.83,-663.31 1070.67,-663.31 1070.67,-663.31 1249.33,-663.31 1249.33,-663.31 1253.17,-663.31 1257,-667.15 1257,-670.98 1257,-670.98 1257,-678.65 1257,-678.65 1257,-682.48 1253.17,-686.31 1249.33,-686.31"/>
<text text-anchor="middle" x="1160" y="-671.11" font-family="Arial" font-size="14.00" fill="#c6c5fe">chunks/ace&#45;QG6W7LZW.mjs</text>
</g>
<!-- chunks/AceEditor&#45;ISYMSWMV.mjs&#45;&gt;chunks/ace&#45;QG6W7LZW.mjs -->
<g id="edge1" class="edge">
<title>chunks/AceEditor&#45;ISYMSWMV.mjs&#45;&gt;chunks/ace&#45;QG6W7LZW.mjs</title>
<path fill="none" stroke="#757575" d="M172.82,-553.32C285.76,-575.36 543.81,-623.58 763,-648.81 860.8,-660.07 972.8,-666.86 1052.67,-670.67"/>
<polygon fill="#757575" stroke="#757575" points="1052.59,-674.17 1062.74,-671.14 1052.91,-667.17 1052.59,-674.17"/>
</g>
<!-- chunks/chunk&#45;2EC3UX5J.mjs -->
<g id="node3" class="node">
<title>chunks/chunk&#45;2EC3UX5J.mjs</title>
<path fill="none" stroke="#c6c5fe" d="M1813.83,-336.31C1813.83,-336.31 1633.17,-336.31 1633.17,-336.31 1629.33,-336.31 1625.5,-332.48 1625.5,-328.65 1625.5,-328.65 1625.5,-320.98 1625.5,-320.98 1625.5,-317.15 1629.33,-313.31 1633.17,-313.31 1633.17,-313.31 1813.83,-313.31 1813.83,-313.31 1817.67,-313.31 1821.5,-317.15 1821.5,-320.98 1821.5,-320.98 1821.5,-328.65 1821.5,-328.65 1821.5,-332.48 1817.67,-336.31 1813.83,-336.31"/>
<text text-anchor="middle" x="1723.5" y="-321.11" font-family="Arial" font-size="14.00" fill="#c6c5fe">chunks/chunk&#45;2EC3UX5J.mjs</text>
</g>
<!-- chunks/AceEditor&#45;ISYMSWMV.mjs&#45;&gt;chunks/chunk&#45;2EC3UX5J.mjs -->
<g id="edge2" class="edge">
<title>chunks/AceEditor&#45;ISYMSWMV.mjs&#45;&gt;chunks/chunk&#45;2EC3UX5J.mjs</title>
<path fill="none" stroke="#757575" d="M173.88,-530.3C266.95,-513.13 453.92,-482.81 614,-482.81 614,-482.81 614,-482.81 894.5,-482.81 1057.19,-482.81 1113.68,-533.94 1260,-462.81 1281.81,-452.21 1275.16,-434.22 1296,-421.81 1326.44,-403.69 1539.15,-360.45 1652.2,-338.33"/>
<polygon fill="#757575" stroke="#757575" points="1653.02,-341.74 1662.16,-336.39 1651.68,-334.87 1653.02,-341.74"/>
</g>
<!-- chunks/chunk&#45;BVBCO5XX.mjs -->
<g id="node4" class="node">
<title>chunks/chunk&#45;BVBCO5XX.mjs</title>
<path fill="none" stroke="#ff6c60" d="M459.33,-260.31C459.33,-260.31 271.67,-260.31 271.67,-260.31 267.83,-260.31 264,-256.48 264,-252.65 264,-252.65 264,-244.98 264,-244.98 264,-241.15 267.83,-237.31 271.67,-237.31 271.67,-237.31 459.33,-237.31 459.33,-237.31 463.17,-237.31 467,-241.15 467,-244.98 467,-244.98 467,-252.65 467,-252.65 467,-256.48 463.17,-260.31 459.33,-260.31"/>
<text text-anchor="middle" x="365.5" y="-245.11" font-family="Arial" font-size="14.00" fill="#ff6c60">chunks/chunk&#45;BVBCO5XX.mjs</text>
</g>
<!-- chunks/AceEditor&#45;ISYMSWMV.mjs&#45;&gt;chunks/chunk&#45;BVBCO5XX.mjs -->
<g id="edge3" class="edge">
<title>chunks/AceEditor&#45;ISYMSWMV.mjs&#45;&gt;chunks/chunk&#45;BVBCO5XX.mjs</title>
<path fill="none" stroke="#757575" d="M117.9,-530.3C128.96,-488.77 172.61,-345.37 264,-274.81 269.37,-270.67 275.33,-267.18 281.59,-264.25"/>
<polygon fill="#757575" stroke="#757575" points="283.08,-267.42 290.95,-260.33 280.37,-260.96 283.08,-267.42"/>
</g>
<!-- chunks/chunk&#45;NCQNU3CH.mjs -->
<g id="node5" class="node">
<title>chunks/chunk&#45;NCQNU3CH.mjs</title>
<path fill="none" stroke="#c6c5fe" d="M1527.33,-281.31C1527.33,-281.31 1336.67,-281.31 1336.67,-281.31 1332.83,-281.31 1329,-277.48 1329,-273.65 1329,-273.65 1329,-265.98 1329,-265.98 1329,-262.15 1332.83,-258.31 1336.67,-258.31 1336.67,-258.31 1527.33,-258.31 1527.33,-258.31 1531.17,-258.31 1535,-262.15 1535,-265.98 1535,-265.98 1535,-273.65 1535,-273.65 1535,-277.48 1531.17,-281.31 1527.33,-281.31"/>
<text text-anchor="middle" x="1432" y="-266.11" font-family="Arial" font-size="14.00" fill="#c6c5fe">chunks/chunk&#45;NCQNU3CH.mjs</text>
</g>
<!-- chunks/AceEditor&#45;ISYMSWMV.mjs&#45;&gt;chunks/chunk&#45;NCQNU3CH.mjs -->
<g id="edge4" class="edge">
<title>chunks/AceEditor&#45;ISYMSWMV.mjs&#45;&gt;chunks/chunk&#45;NCQNU3CH.mjs</title>
<path fill="none" stroke="#757575" d="M126.94,-530.29C179.51,-480.79 397.4,-288.81 614,-288.81 614,-288.81 614,-288.81 894.5,-288.81 1040.99,-288.81 1209.84,-281.65 1318.38,-276.12"/>
<polygon fill="#757575" stroke="#757575" points="1318.88,-279.6 1328.69,-275.59 1318.52,-272.61 1318.88,-279.6"/>
</g>
<!-- chunks/chunk&#45;R2CKLODT.mjs -->
<g id="node6" class="node">
<title>chunks/chunk&#45;R2CKLODT.mjs</title>
<path fill="none" stroke="#ff6c60" d="M1252.33,-454.31C1252.33,-454.31 1067.67,-454.31 1067.67,-454.31 1063.83,-454.31 1060,-450.48 1060,-446.65 1060,-446.65 1060,-438.98 1060,-438.98 1060,-435.15 1063.83,-431.31 1067.67,-431.31 1067.67,-431.31 1252.33,-431.31 1252.33,-431.31 1256.17,-431.31 1260,-435.15 1260,-438.98 1260,-438.98 1260,-446.65 1260,-446.65 1260,-450.48 1256.17,-454.31 1252.33,-454.31"/>
<text text-anchor="middle" x="1160" y="-439.11" font-family="Arial" font-size="14.00" fill="#ff6c60">chunks/chunk&#45;R2CKLODT.mjs</text>
</g>
<!-- chunks/AceEditor&#45;ISYMSWMV.mjs&#45;&gt;chunks/chunk&#45;R2CKLODT.mjs -->
<g id="edge5" class="edge">
<title>chunks/AceEditor&#45;ISYMSWMV.mjs&#45;&gt;chunks/chunk&#45;R2CKLODT.mjs</title>
<path fill="none" stroke="#757575" d="M132.39,-530.2C159.27,-512.98 213.1,-481.39 264,-468.81 409.62,-432.82 844.33,-436.32 1049.5,-440.22"/>
<polygon fill="#757575" stroke="#757575" points="1049.63,-443.73 1059.69,-440.42 1049.76,-436.73 1049.63,-443.73"/>
</g>
<!-- chunks/chunk&#45;TOGJVKJT.mjs -->
<g id="node7" class="node">
<title>chunks/chunk&#45;TOGJVKJT.mjs</title>
<path fill="none" stroke="#cfffac" d="M2615.33,-472.31C2615.33,-472.31 2432.67,-472.31 2432.67,-472.31 2428.83,-472.31 2425,-468.48 2425,-464.65 2425,-464.65 2425,-456.98 2425,-456.98 2425,-453.15 2428.83,-449.31 2432.67,-449.31 2432.67,-449.31 2615.33,-449.31 2615.33,-449.31 2619.17,-449.31 2623,-453.15 2623,-456.98 2623,-456.98 2623,-464.65 2623,-464.65 2623,-468.48 2619.17,-472.31 2615.33,-472.31"/>
<text text-anchor="middle" x="2524" y="-457.11" font-family="Arial" font-size="14.00" fill="#cfffac">chunks/chunk&#45;TOGJVKJT.mjs</text>
</g>
<!-- chunks/AceEditor&#45;ISYMSWMV.mjs&#45;&gt;chunks/chunk&#45;TOGJVKJT.mjs -->
<g id="edge6" class="edge">
<title>chunks/AceEditor&#45;ISYMSWMV.mjs&#45;&gt;chunks/chunk&#45;TOGJVKJT.mjs</title>
<path fill="none" stroke="#757575" d="M138.42,-553.32C167.29,-567.04 218.16,-589.77 264,-602.81 367.59,-632.29 396.39,-627.55 503,-642.81 912.51,-701.46 1017.32,-714.81 1431,-714.81 1431,-714.81 1431,-714.81 2014.5,-714.81 2097.92,-714.81 2318.07,-732.73 2389,-688.81 2466.86,-640.6 2504.74,-529.11 2517.67,-482.21"/>
<polygon fill="#757575" stroke="#757575" points="2521.07,-483.05 2520.25,-472.49 2514.3,-481.26 2521.07,-483.05"/>
</g>
<!-- chunks/mode&#45;typescript&#45;UMBYOL5W.mjs -->
<g id="node8" class="node">
<title>chunks/mode&#45;typescript&#45;UMBYOL5W.mjs</title>
<path fill="none" stroke="#c6c5fe" d="M2140.33,-804.31C2140.33,-804.31 1886.67,-804.31 1886.67,-804.31 1882.83,-804.31 1879,-800.48 1879,-796.65 1879,-796.65 1879,-788.98 1879,-788.98 1879,-785.15 1882.83,-781.31 1886.67,-781.31 1886.67,-781.31 2140.33,-781.31 2140.33,-781.31 2144.17,-781.31 2148,-785.15 2148,-788.98 2148,-788.98 2148,-796.65 2148,-796.65 2148,-800.48 2144.17,-804.31 2140.33,-804.31"/>
<text text-anchor="middle" x="2013.5" y="-789.11" font-family="Arial" font-size="14.00" fill="#c6c5fe">chunks/mode&#45;typescript&#45;UMBYOL5W.mjs</text>
</g>
<!-- chunks/AceEditor&#45;ISYMSWMV.mjs&#45;&gt;chunks/mode&#45;typescript&#45;UMBYOL5W.mjs -->
<g id="edge7" class="edge">
<title>chunks/AceEditor&#45;ISYMSWMV.mjs&#45;&gt;chunks/mode&#45;typescript&#45;UMBYOL5W.mjs</title>
<path fill="none" stroke="#757575" d="M118.94,-553.35C132.33,-590.61 180.05,-708.25 264,-757.81 398.62,-837.29 457.67,-792.81 614,-792.81 614,-792.81 614,-792.81 1433,-792.81 1581.47,-792.81 1751.34,-792.81 1868.6,-792.81"/>
<polygon fill="#757575" stroke="#757575" points="1868.71,-796.31 1878.71,-792.81 1868.71,-789.31 1868.71,-796.31"/>
</g>
<!-- chunks/theme&#45;monokai&#45;ZQWZ44C2.mjs -->
<g id="node9" class="node">
<title>chunks/theme&#45;monokai&#45;ZQWZ44C2.mjs</title>
<path fill="none" stroke="#c6c5fe" d="M1016.33,-764.31C1016.33,-764.31 770.67,-764.31 770.67,-764.31 766.83,-764.31 763,-760.48 763,-756.65 763,-756.65 763,-748.98 763,-748.98 763,-745.15 766.83,-741.31 770.67,-741.31 770.67,-741.31 1016.33,-741.31 1016.33,-741.31 1020.17,-741.31 1024,-745.15 1024,-748.98 1024,-748.98 1024,-756.65 1024,-756.65 1024,-760.48 1020.17,-764.31 1016.33,-764.31"/>
<text text-anchor="middle" x="893.5" y="-749.11" font-family="Arial" font-size="14.00" fill="#c6c5fe">chunks/theme&#45;monokai&#45;ZQWZ44C2.mjs</text>
</g>
<!-- chunks/AceEditor&#45;ISYMSWMV.mjs&#45;&gt;chunks/theme&#45;monokai&#45;ZQWZ44C2.mjs -->
<g id="edge8" class="edge">
<title>chunks/AceEditor&#45;ISYMSWMV.mjs&#45;&gt;chunks/theme&#45;monokai&#45;ZQWZ44C2.mjs</title>
<path fill="none" stroke="#757575" d="M119.99,-553.32C135.46,-587.36 186.3,-687.63 264,-726.81 346.36,-768.34 593.66,-766.39 752.39,-760.25"/>
<polygon fill="#757575" stroke="#757575" points="752.86,-763.74 762.71,-759.84 752.58,-756.74 752.86,-763.74"/>
</g>
<!-- chunks/ace&#45;QG6W7LZW.mjs&#45;&gt;chunks/chunk&#45;TOGJVKJT.mjs -->
<g id="edge16" class="edge">
<title>chunks/ace&#45;QG6W7LZW.mjs&#45;&gt;chunks/chunk&#45;TOGJVKJT.mjs</title>
<path fill="none" stroke="#757575" d="M1257.13,-675.37C1368.94,-675.96 1559.09,-676.81 1722.5,-676.81 1722.5,-676.81 1722.5,-676.81 2014.5,-676.81 2181.29,-676.81 2243.66,-734.63 2389,-652.81 2457.92,-614.02 2499.48,-523.29 2515.46,-481.98"/>
<polygon fill="#757575" stroke="#757575" points="2518.82,-482.97 2519.05,-472.38 2512.27,-480.52 2518.82,-482.97"/>
</g>
<!-- chunks/chunk&#45;2EC3UX5J.mjs&#45;&gt;chunks/chunk&#45;TOGJVKJT.mjs -->
<g id="edge18" class="edge">
<title>chunks/chunk&#45;2EC3UX5J.mjs&#45;&gt;chunks/chunk&#45;TOGJVKJT.mjs</title>
<path fill="none" stroke="#757575" d="M1794.28,-313.29C1820.74,-309.46 1851.18,-305.7 1879,-303.81 1992.08,-296.17 2286.11,-257.3 2389,-304.81 2450.33,-333.14 2494.2,-404.81 2512.92,-440.28"/>
<polygon fill="#757575" stroke="#757575" points="2509.85,-441.96 2517.53,-449.26 2516.08,-438.77 2509.85,-441.96"/>
</g>
<!-- chunks/prettierEsm&#45;EJS342UP.mjs -->
<g id="node13" class="node">
<title>chunks/prettierEsm&#45;EJS342UP.mjs</title>
<path fill="none" stroke="#c6c5fe" d="M2119.33,-336.31C2119.33,-336.31 1907.67,-336.31 1907.67,-336.31 1903.83,-336.31 1900,-332.48 1900,-328.65 1900,-328.65 1900,-320.98 1900,-320.98 1900,-317.15 1903.83,-313.31 1907.67,-313.31 1907.67,-313.31 2119.33,-313.31 2119.33,-313.31 2123.17,-313.31 2127,-317.15 2127,-320.98 2127,-320.98 2127,-328.65 2127,-328.65 2127,-332.48 2123.17,-336.31 2119.33,-336.31"/>
<text text-anchor="middle" x="2013.5" y="-321.11" font-family="Arial" font-size="14.00" fill="#c6c5fe">chunks/prettierEsm&#45;EJS342UP.mjs</text>
</g>
<!-- chunks/chunk&#45;2EC3UX5J.mjs&#45;&gt;chunks/prettierEsm&#45;EJS342UP.mjs -->
<g id="edge19" class="edge">
<title>chunks/chunk&#45;2EC3UX5J.mjs&#45;&gt;chunks/prettierEsm&#45;EJS342UP.mjs</title>
<path fill="none" stroke="#757575" d="M1821.6,-324.81C1843.51,-324.81 1867.04,-324.81 1889.84,-324.81"/>
<polygon fill="#757575" stroke="#757575" points="1889.91,-328.31 1899.91,-324.81 1889.91,-321.31 1889.91,-328.31"/>
</g>
<!-- chunks/chunk&#45;BVBCO5XX.mjs&#45;&gt;chunks/chunk&#45;2EC3UX5J.mjs -->
<g id="edge20" class="edge">
<title>chunks/chunk&#45;BVBCO5XX.mjs&#45;&gt;chunks/chunk&#45;2EC3UX5J.mjs</title>
<path fill="none" stroke="#757575" d="M467.2,-237.82C572.97,-227.23 744.22,-212.81 892.5,-212.81 892.5,-212.81 892.5,-212.81 1161,-212.81 1342.6,-212.81 1393.11,-199.91 1568,-248.81 1615.48,-262.09 1665.91,-289.81 1695.78,-307.85"/>
<polygon fill="#757575" stroke="#757575" points="1694.01,-310.87 1704.37,-313.11 1697.67,-304.9 1694.01,-310.87"/>
</g>
<!-- chunks/chunk&#45;BVBCO5XX.mjs&#45;&gt;chunks/chunk&#45;NCQNU3CH.mjs -->
<g id="edge21" class="edge">
<title>chunks/chunk&#45;BVBCO5XX.mjs&#45;&gt;chunks/chunk&#45;NCQNU3CH.mjs</title>
<path fill="none" stroke="#757575" d="M467.12,-250.8C666.5,-254.73 1110.43,-263.49 1318.85,-267.6"/>
<polygon fill="#757575" stroke="#757575" points="1318.83,-271.1 1328.9,-267.8 1318.97,-264.1 1318.83,-271.1"/>
</g>
<!-- chunks/chunk&#45;BVBCO5XX.mjs&#45;&gt;chunks/chunk&#45;TOGJVKJT.mjs -->
<g id="edge22" class="edge">
<title>chunks/chunk&#45;BVBCO5XX.mjs&#45;&gt;chunks/chunk&#45;TOGJVKJT.mjs</title>
<path fill="none" stroke="#757575" d="M378.94,-237.05C401.69,-216.2 452.35,-172.8 503,-149.81 664.7,-76.43 714.93,-60.81 892.5,-60.81 892.5,-60.81 892.5,-60.81 2014.5,-60.81 2185.68,-60.81 2258,-40.62 2389,-150.81 2481.54,-228.66 2511.95,-382.29 2520.27,-439.06"/>
<polygon fill="#757575" stroke="#757575" points="2516.82,-439.65 2521.65,-449.07 2523.75,-438.69 2516.82,-439.65"/>
</g>
<!-- chunks/ipfs&#45;XS646A2L.mjs -->
<g id="node14" class="node">
<title>chunks/ipfs&#45;XS646A2L.mjs</title>
<path fill="none" stroke="#c6c5fe" d="M2368.33,-183.31C2368.33,-183.31 2204.67,-183.31 2204.67,-183.31 2200.83,-183.31 2197,-179.48 2197,-175.65 2197,-175.65 2197,-167.98 2197,-167.98 2197,-164.15 2200.83,-160.31 2204.67,-160.31 2204.67,-160.31 2368.33,-160.31 2368.33,-160.31 2372.17,-160.31 2376,-164.15 2376,-167.98 2376,-167.98 2376,-175.65 2376,-175.65 2376,-179.48 2372.17,-183.31 2368.33,-183.31"/>
<text text-anchor="middle" x="2286.5" y="-168.11" font-family="Arial" font-size="14.00" fill="#c6c5fe">chunks/ipfs&#45;XS646A2L.mjs</text>
</g>
<!-- chunks/chunk&#45;BVBCO5XX.mjs&#45;&gt;chunks/ipfs&#45;XS646A2L.mjs -->
<g id="edge23" class="edge">
<title>chunks/chunk&#45;BVBCO5XX.mjs&#45;&gt;chunks/ipfs&#45;XS646A2L.mjs</title>
<path fill="none" stroke="#757575" d="M398.02,-237.25C478.94,-208.63 701.1,-136.81 892.5,-136.81 892.5,-136.81 892.5,-136.81 1724.5,-136.81 1886.56,-136.81 2074.43,-151.54 2186.44,-161.89"/>
<polygon fill="#757575" stroke="#757575" points="2186.42,-165.4 2196.7,-162.85 2187.07,-158.43 2186.42,-165.4"/>
</g>
<!-- chunks/quickStart&#45;6UTKNCDJ.mjs -->
<g id="node15" class="node">
<title>chunks/quickStart&#45;6UTKNCDJ.mjs</title>
<path fill="none" stroke="#ff6c60" d="M719.33,-553.31C719.33,-553.31 510.67,-553.31 510.67,-553.31 506.83,-553.31 503,-549.48 503,-545.65 503,-545.65 503,-537.98 503,-537.98 503,-534.15 506.83,-530.31 510.67,-530.31 510.67,-530.31 719.33,-530.31 719.33,-530.31 723.17,-530.31 727,-534.15 727,-537.98 727,-537.98 727,-545.65 727,-545.65 727,-549.48 723.17,-553.31 719.33,-553.31"/>
<text text-anchor="middle" x="615" y="-538.11" font-family="Arial" font-size="14.00" fill="#ff6c60">chunks/quickStart&#45;6UTKNCDJ.mjs</text>
</g>
<!-- chunks/chunk&#45;BVBCO5XX.mjs&#45;&gt;chunks/quickStart&#45;6UTKNCDJ.mjs -->
<g id="edge24" class="edge">
<title>chunks/chunk&#45;BVBCO5XX.mjs&#45;&gt;chunks/quickStart&#45;6UTKNCDJ.mjs</title>
<path fill="none" stroke="#757575" d="M375.48,-260.73C396.92,-289.01 453.01,-362.24 503,-420.81 534.59,-457.83 573.41,-499.28 595.77,-522.79"/>
<polygon fill="#757575" stroke="#757575" points="593.25,-525.23 602.68,-530.05 598.31,-520.4 593.25,-525.23"/>
</g>
<!-- chunks/chunk&#45;NCQNU3CH.mjs&#45;&gt;chunks/chunk&#45;TOGJVKJT.mjs -->
<g id="edge26" class="edge">
<title>chunks/chunk&#45;NCQNU3CH.mjs&#45;&gt;chunks/chunk&#45;TOGJVKJT.mjs</title>
<path fill="none" stroke="#757575" d="M1472.83,-258.23C1609.77,-220.78 2070.31,-114.5 2389,-277.81 2456.7,-312.51 2498.53,-399.05 2514.98,-439.43"/>
<polygon fill="#757575" stroke="#757575" points="2511.78,-440.85 2518.7,-448.87 2518.29,-438.28 2511.78,-440.85"/>
</g>
<!-- chunks/chunk&#45;R2CKLODT.mjs&#45;&gt;chunks/chunk&#45;BVBCO5XX.mjs -->
<g id="edge27" class="edge">
<title>chunks/chunk&#45;R2CKLODT.mjs&#45;&gt;chunks/chunk&#45;BVBCO5XX.mjs</title>
<path fill="none" stroke="#757575" d="M1059.62,-431.56C979.22,-421.73 863.29,-405.89 763,-385.81 645.99,-362.39 614.55,-361.19 503,-318.81 464.03,-304.01 421.68,-281.14 394.65,-265.6"/>
<polygon fill="#757575" stroke="#757575" points="396.17,-262.43 385.76,-260.43 392.65,-268.48 396.17,-262.43"/>
</g>
<!-- chunks/chunk&#45;R2CKLODT.mjs&#45;&gt;chunks/chunk&#45;NCQNU3CH.mjs -->
<g id="edge28" class="edge">
<title>chunks/chunk&#45;R2CKLODT.mjs&#45;&gt;chunks/chunk&#45;NCQNU3CH.mjs</title>
<path fill="none" stroke="#757575" d="M1179.13,-431.2C1225.73,-401.34 1349.8,-321.85 1404.48,-286.81"/>
<polygon fill="#757575" stroke="#757575" points="1406.41,-289.73 1412.94,-281.38 1402.64,-283.83 1406.41,-289.73"/>
</g>
<!-- chunks/chunk&#45;R2CKLODT.mjs&#45;&gt;chunks/chunk&#45;TOGJVKJT.mjs -->
<g id="edge29" class="edge">
<title>chunks/chunk&#45;R2CKLODT.mjs&#45;&gt;chunks/chunk&#45;TOGJVKJT.mjs</title>
<path fill="none" stroke="#757575" d="M1191.34,-454.34C1218.39,-464.11 1259.26,-477.64 1296,-484.81 1482.7,-521.29 1532.27,-520.81 1722.5,-520.81 1722.5,-520.81 1722.5,-520.81 2014.5,-520.81 2172.47,-520.81 2356.16,-491.9 2453.74,-474.22"/>
<polygon fill="#757575" stroke="#757575" points="2454.56,-477.62 2463.77,-472.38 2453.3,-470.74 2454.56,-477.62"/>
</g>
<!-- chunks/esbuildEsm&#45;BUXFOPFO.mjs -->
<g id="node17" class="node">
<title>chunks/esbuildEsm&#45;BUXFOPFO.mjs</title>
<path fill="none" stroke="#c6c5fe" d="M1835.33,-492.31C1835.33,-492.31 1611.67,-492.31 1611.67,-492.31 1607.83,-492.31 1604,-488.48 1604,-484.65 1604,-484.65 1604,-476.98 1604,-476.98 1604,-473.15 1607.83,-469.31 1611.67,-469.31 1611.67,-469.31 1835.33,-469.31 1835.33,-469.31 1839.17,-469.31 1843,-473.15 1843,-476.98 1843,-476.98 1843,-484.65 1843,-484.65 1843,-488.48 1839.17,-492.31 1835.33,-492.31"/>
<text text-anchor="middle" x="1723.5" y="-477.11" font-family="Arial" font-size="14.00" fill="#c6c5fe">chunks/esbuildEsm&#45;BUXFOPFO.mjs</text>
</g>
<!-- chunks/chunk&#45;R2CKLODT.mjs&#45;&gt;chunks/esbuildEsm&#45;BUXFOPFO.mjs -->
<g id="edge30" class="edge">
<title>chunks/chunk&#45;R2CKLODT.mjs&#45;&gt;chunks/esbuildEsm&#45;BUXFOPFO.mjs</title>
<path fill="none" stroke="#757575" d="M1229.16,-454.33C1250.51,-457.56 1274.18,-460.74 1296,-462.81 1395.61,-472.27 1508.78,-476.76 1593.5,-478.89"/>
<polygon fill="#757575" stroke="#757575" points="1593.61,-482.39 1603.69,-479.14 1593.78,-475.39 1593.61,-482.39"/>
</g>
<!-- chunks/renderToString&#45;KCKQHKIW.mjs -->
<g id="node18" class="node">
<title>chunks/renderToString&#45;KCKQHKIW.mjs</title>
<path fill="none" stroke="#c6c5fe" d="M1552.33,-454.31C1552.33,-454.31 1311.67,-454.31 1311.67,-454.31 1307.83,-454.31 1304,-450.48 1304,-446.65 1304,-446.65 1304,-438.98 1304,-438.98 1304,-435.15 1307.83,-431.31 1311.67,-431.31 1311.67,-431.31 1552.33,-431.31 1552.33,-431.31 1556.17,-431.31 1560,-435.15 1560,-438.98 1560,-438.98 1560,-446.65 1560,-446.65 1560,-450.48 1556.17,-454.31 1552.33,-454.31"/>
<text text-anchor="middle" x="1432" y="-439.11" font-family="Arial" font-size="14.00" fill="#c6c5fe">chunks/renderToString&#45;KCKQHKIW.mjs</text>
</g>
<!-- chunks/chunk&#45;R2CKLODT.mjs&#45;&gt;chunks/renderToString&#45;KCKQHKIW.mjs -->
<g id="edge31" class="edge">
<title>chunks/chunk&#45;R2CKLODT.mjs&#45;&gt;chunks/renderToString&#45;KCKQHKIW.mjs</title>
<path fill="none" stroke="#757575" d="M1260,-442.81C1271.06,-442.81 1282.47,-442.81 1293.9,-442.81"/>
<polygon fill="#757575" stroke="#757575" points="1293.93,-446.31 1303.93,-442.81 1293.93,-439.31 1293.93,-446.31"/>
</g>
<!-- chunks/mode&#45;typescript&#45;UMBYOL5W.mjs&#45;&gt;chunks/chunk&#45;TOGJVKJT.mjs -->
<g id="edge34" class="edge">
<title>chunks/mode&#45;typescript&#45;UMBYOL5W.mjs&#45;&gt;chunks/chunk&#45;TOGJVKJT.mjs</title>
<path fill="none" stroke="#757575" d="M2064.39,-804.37C2141.61,-819.23 2291.36,-835.59 2389,-766.81 2487.01,-697.77 2514.11,-540.71 2520.91,-482.79"/>
<polygon fill="#757575" stroke="#757575" points="2524.42,-482.91 2522.02,-472.59 2517.46,-482.15 2524.42,-482.91"/>
</g>
<!-- chunks/theme&#45;monokai&#45;ZQWZ44C2.mjs&#45;&gt;chunks/chunk&#45;TOGJVKJT.mjs -->
<g id="edge45" class="edge">
<title>chunks/theme&#45;monokai&#45;ZQWZ44C2.mjs&#45;&gt;chunks/chunk&#45;TOGJVKJT.mjs</title>
<path fill="none" stroke="#757575" d="M1024.05,-752.81C1132.71,-752.81 1291.99,-752.81 1431,-752.81 1431,-752.81 1431,-752.81 2014.5,-752.81 2097.89,-752.81 2319.5,-774.9 2389,-728.81 2477.44,-670.17 2510.02,-534.82 2519.61,-482.24"/>
<polygon fill="#757575" stroke="#757575" points="2523.06,-482.79 2521.31,-472.34 2516.16,-481.6 2523.06,-482.79"/>
</g>
<!-- chunks/DraggableWindow&#45;XDEVJ42C.mjs -->
<g id="node10" class="node">
<title>chunks/DraggableWindow&#45;XDEVJ42C.mjs</title>
<path fill="none" stroke="#c6c5fe" d="M1560.33,-572.31C1560.33,-572.31 1303.67,-572.31 1303.67,-572.31 1299.83,-572.31 1296,-568.48 1296,-564.65 1296,-564.65 1296,-556.98 1296,-556.98 1296,-553.15 1299.83,-549.31 1303.67,-549.31 1303.67,-549.31 1560.33,-549.31 1560.33,-549.31 1564.17,-549.31 1568,-553.15 1568,-556.98 1568,-556.98 1568,-564.65 1568,-564.65 1568,-568.48 1564.17,-572.31 1560.33,-572.31"/>
<text text-anchor="middle" x="1432" y="-557.11" font-family="Arial" font-size="14.00" fill="#c6c5fe">chunks/DraggableWindow&#45;XDEVJ42C.mjs</text>
</g>
<!-- chunks/DraggableWindow&#45;XDEVJ42C.mjs&#45;&gt;chunks/chunk&#45;TOGJVKJT.mjs -->
<g id="edge10" class="edge">
<title>chunks/DraggableWindow&#45;XDEVJ42C.mjs&#45;&gt;chunks/chunk&#45;TOGJVKJT.mjs</title>
<path fill="none" stroke="#757575" d="M1517.66,-572.32C1545.15,-575.63 1575.82,-578.86 1604,-580.81 1778.06,-592.87 2226.72,-630.89 2389,-566.81 2437.55,-547.65 2482.66,-504.75 2506.13,-479.8"/>
<polygon fill="#757575" stroke="#757575" points="2508.76,-482.11 2512.97,-472.38 2503.61,-477.37 2508.76,-482.11"/>
</g>
<!-- chunks/chunk&#45;26SLPZ5H.mjs -->
<g id="node11" class="node">
<title>chunks/chunk&#45;26SLPZ5H.mjs</title>
<path fill="none" stroke="#c6c5fe" d="M1813.33,-572.31C1813.33,-572.31 1633.67,-572.31 1633.67,-572.31 1629.83,-572.31 1626,-568.48 1626,-564.65 1626,-564.65 1626,-556.98 1626,-556.98 1626,-553.15 1629.83,-549.31 1633.67,-549.31 1633.67,-549.31 1813.33,-549.31 1813.33,-549.31 1817.17,-549.31 1821,-553.15 1821,-556.98 1821,-556.98 1821,-564.65 1821,-564.65 1821,-568.48 1817.17,-572.31 1813.33,-572.31"/>
<text text-anchor="middle" x="1723.5" y="-557.11" font-family="Arial" font-size="14.00" fill="#c6c5fe">chunks/chunk&#45;26SLPZ5H.mjs</text>
</g>
<!-- chunks/DraggableWindow&#45;XDEVJ42C.mjs&#45;&gt;chunks/chunk&#45;26SLPZ5H.mjs -->
<g id="edge9" class="edge">
<title>chunks/DraggableWindow&#45;XDEVJ42C.mjs&#45;&gt;chunks/chunk&#45;26SLPZ5H.mjs</title>
<path fill="none" stroke="#757575" d="M1568,-560.81C1583.96,-560.81 1600.09,-560.81 1615.58,-560.81"/>
<polygon fill="#757575" stroke="#757575" points="1615.67,-564.31 1625.67,-560.81 1615.67,-557.31 1615.67,-564.31"/>
</g>
<!-- chunks/chunk&#45;26SLPZ5H.mjs&#45;&gt;chunks/chunk&#45;TOGJVKJT.mjs -->
<g id="edge17" class="edge">
<title>chunks/chunk&#45;26SLPZ5H.mjs&#45;&gt;chunks/chunk&#45;TOGJVKJT.mjs</title>
<path fill="none" stroke="#757575" d="M1821.28,-570.77C1952.59,-581.2 2193.26,-589.37 2389,-534.81 2430.68,-523.2 2473.54,-496.43 2499.22,-478.48"/>
<polygon fill="#757575" stroke="#757575" points="2501.45,-481.19 2507.56,-472.53 2497.39,-475.49 2501.45,-481.19"/>
</g>
<!-- chunks/MonacoEditor&#45;DUP5FULV.mjs -->
<g id="node12" class="node">
<title>chunks/MonacoEditor&#45;DUP5FULV.mjs</title>
<path fill="none" stroke="#ff6c60" d="M1008.83,-377.31C1008.83,-377.31 778.17,-377.31 778.17,-377.31 774.33,-377.31 770.5,-373.48 770.5,-369.65 770.5,-369.65 770.5,-361.98 770.5,-361.98 770.5,-358.15 774.33,-354.31 778.17,-354.31 778.17,-354.31 1008.83,-354.31 1008.83,-354.31 1012.67,-354.31 1016.5,-358.15 1016.5,-361.98 1016.5,-361.98 1016.5,-369.65 1016.5,-369.65 1016.5,-373.48 1012.67,-377.31 1008.83,-377.31"/>
<text text-anchor="middle" x="893.5" y="-362.11" font-family="Arial" font-size="14.00" fill="#ff6c60">chunks/MonacoEditor&#45;DUP5FULV.mjs</text>
</g>
<!-- chunks/MonacoEditor&#45;DUP5FULV.mjs&#45;&gt;chunks/chunk&#45;2EC3UX5J.mjs -->
<g id="edge11" class="edge">
<title>chunks/MonacoEditor&#45;DUP5FULV.mjs&#45;&gt;chunks/chunk&#45;2EC3UX5J.mjs</title>
<path fill="none" stroke="#757575" d="M1016.67,-359.76C1178.39,-351.76 1460.98,-337.76 1614.98,-330.14"/>
<polygon fill="#757575" stroke="#757575" points="1615.57,-333.61 1625.39,-329.62 1615.22,-326.62 1615.57,-333.61"/>
</g>
<!-- chunks/MonacoEditor&#45;DUP5FULV.mjs&#45;&gt;chunks/chunk&#45;BVBCO5XX.mjs -->
<g id="edge12" class="edge">
<title>chunks/MonacoEditor&#45;DUP5FULV.mjs&#45;&gt;chunks/chunk&#45;BVBCO5XX.mjs</title>
<path fill="none" stroke="#757575" d="M840.63,-354.28C743.08,-332.58 532.75,-285.8 428.16,-262.53"/>
<polygon fill="#757575" stroke="#757575" points="428.9,-259.11 418.37,-260.35 427.38,-265.94 428.9,-259.11"/>
</g>
<!-- chunks/MonacoEditor&#45;DUP5FULV.mjs&#45;&gt;chunks/chunk&#45;NCQNU3CH.mjs -->
<g id="edge13" class="edge">
<title>chunks/MonacoEditor&#45;DUP5FULV.mjs&#45;&gt;chunks/chunk&#45;NCQNU3CH.mjs</title>
<path fill="none" stroke="#757575" d="M963.96,-354.27C1037.54,-341.93 1157.07,-321.62 1260,-302.81 1293.95,-296.61 1331.62,-289.38 1362.95,-283.27"/>
<polygon fill="#757575" stroke="#757575" points="1363.74,-286.68 1372.88,-281.33 1362.4,-279.81 1363.74,-286.68"/>
</g>
<!-- chunks/MonacoEditor&#45;DUP5FULV.mjs&#45;&gt;chunks/chunk&#45;R2CKLODT.mjs -->
<g id="edge14" class="edge">
<title>chunks/MonacoEditor&#45;DUP5FULV.mjs&#45;&gt;chunks/chunk&#45;R2CKLODT.mjs</title>
<path fill="none" stroke="#757575" d="M973.68,-377.31C990.66,-381.15 1008.22,-386.2 1024,-392.81 1041.74,-400.25 1042.46,-408.93 1060,-416.81 1070.05,-421.33 1081.04,-425.19 1091.93,-428.44"/>
<polygon fill="#757575" stroke="#757575" points="1091.29,-431.89 1101.87,-431.25 1093.2,-425.16 1091.29,-431.89"/>
</g>
<!-- chunks/MonacoEditor&#45;DUP5FULV.mjs&#45;&gt;chunks/chunk&#45;TOGJVKJT.mjs -->
<g id="edge15" class="edge">
<title>chunks/MonacoEditor&#45;DUP5FULV.mjs&#45;&gt;chunks/chunk&#45;TOGJVKJT.mjs</title>
<path fill="none" stroke="#757575" d="M1016.57,-372.44C1271.55,-386.37 1879.3,-420.03 2389,-451.81 2397.36,-452.34 2406.02,-452.89 2414.72,-453.45"/>
<polygon fill="#757575" stroke="#757575" points="2414.73,-456.96 2424.94,-454.12 2415.19,-449.98 2414.73,-456.96"/>
</g>
<!-- chunks/prettierEsm&#45;EJS342UP.mjs&#45;&gt;chunks/chunk&#45;TOGJVKJT.mjs -->
<g id="edge36" class="edge">
<title>chunks/prettierEsm&#45;EJS342UP.mjs&#45;&gt;chunks/chunk&#45;TOGJVKJT.mjs</title>
<path fill="none" stroke="#757575" d="M2095.98,-313.3C2174.16,-305.7 2294.03,-303.24 2389,-341.81 2440.76,-362.84 2485.84,-412.92 2508.14,-440.95"/>
<polygon fill="#757575" stroke="#757575" points="2505.66,-443.46 2514.56,-449.21 2511.19,-439.16 2505.66,-443.46"/>
</g>
<!-- chunks/chunk&#45;HGH6KN2Q.mjs -->
<g id="node16" class="node">
<title>chunks/chunk&#45;HGH6KN2Q.mjs</title>
<path fill="none" stroke="#c6c5fe" d="M2381.33,-374.31C2381.33,-374.31 2191.67,-374.31 2191.67,-374.31 2187.83,-374.31 2184,-370.48 2184,-366.65 2184,-366.65 2184,-358.98 2184,-358.98 2184,-355.15 2187.83,-351.31 2191.67,-351.31 2191.67,-351.31 2381.33,-351.31 2381.33,-351.31 2385.17,-351.31 2389,-355.15 2389,-358.98 2389,-358.98 2389,-366.65 2389,-366.65 2389,-370.48 2385.17,-374.31 2381.33,-374.31"/>
<text text-anchor="middle" x="2286.5" y="-359.11" font-family="Arial" font-size="14.00" fill="#c6c5fe">chunks/chunk&#45;HGH6KN2Q.mjs</text>
</g>
<!-- chunks/prettierEsm&#45;EJS342UP.mjs&#45;&gt;chunks/chunk&#45;HGH6KN2Q.mjs -->
<g id="edge35" class="edge">
<title>chunks/prettierEsm&#45;EJS342UP.mjs&#45;&gt;chunks/chunk&#45;HGH6KN2Q.mjs</title>
<path fill="none" stroke="#757575" d="M2096.54,-336.32C2127.05,-340.6 2161.86,-345.48 2193.22,-349.87"/>
<polygon fill="#757575" stroke="#757575" points="2192.88,-353.36 2203.27,-351.28 2193.85,-346.43 2192.88,-353.36"/>
</g>
<!-- chunks/ipfs&#45;XS646A2L.mjs&#45;&gt;chunks/chunk&#45;TOGJVKJT.mjs -->
<g id="edge33" class="edge">
<title>chunks/ipfs&#45;XS646A2L.mjs&#45;&gt;chunks/chunk&#45;TOGJVKJT.mjs</title>
<path fill="none" stroke="#757575" d="M2314.58,-183.47C2336.6,-193.95 2367.45,-211.05 2389,-232.81 2452.27,-296.71 2497.16,-396.29 2514.76,-439.55"/>
<polygon fill="#757575" stroke="#757575" points="2511.6,-441.06 2518.55,-449.05 2518.1,-438.47 2511.6,-441.06"/>
</g>
<!-- chunks/quickStart&#45;6UTKNCDJ.mjs&#45;&gt;chunks/AceEditor&#45;ISYMSWMV.mjs -->
<g id="edge37" class="edge">
<title>chunks/quickStart&#45;6UTKNCDJ.mjs&#45;&gt;chunks/AceEditor&#45;ISYMSWMV.mjs</title>
<path fill="none" stroke="#757575" d="M502.94,-541.81C424.56,-541.81 319.51,-541.81 238.49,-541.81"/>
<polygon fill="#757575" stroke="#757575" points="238.23,-538.31 228.23,-541.81 238.23,-545.31 238.23,-538.31"/>
</g>
<!-- chunks/quickStart&#45;6UTKNCDJ.mjs&#45;&gt;chunks/chunk&#45;TOGJVKJT.mjs -->
<g id="edge40" class="edge">
<title>chunks/quickStart&#45;6UTKNCDJ.mjs&#45;&gt;chunks/chunk&#45;TOGJVKJT.mjs</title>
<path fill="none" stroke="#757575" d="M686.87,-553.32C710.97,-556.86 738.11,-560.45 763,-562.81 1376.25,-621.07 1532.42,-638.77 2148,-615.81 2255.33,-611.81 2291.62,-643.13 2389,-597.81 2444.49,-571.99 2489.43,-512.53 2510.32,-481.12"/>
<polygon fill="#757575" stroke="#757575" points="2513.51,-482.63 2516.02,-472.34 2507.64,-478.82 2513.51,-482.63"/>
</g>
<!-- chunks/quickStart&#45;6UTKNCDJ.mjs&#45;&gt;chunks/DraggableWindow&#45;XDEVJ42C.mjs -->
<g id="edge38" class="edge">
<title>chunks/quickStart&#45;6UTKNCDJ.mjs&#45;&gt;chunks/DraggableWindow&#45;XDEVJ42C.mjs</title>
<path fill="none" stroke="#757575" d="M727.19,-544.41C872,-547.78 1125.49,-553.69 1285.47,-557.42"/>
<polygon fill="#757575" stroke="#757575" points="1285.79,-560.93 1295.87,-557.66 1285.96,-553.93 1285.79,-560.93"/>
</g>
<!-- chunks/quickStart&#45;6UTKNCDJ.mjs&#45;&gt;chunks/MonacoEditor&#45;DUP5FULV.mjs -->
<g id="edge39" class="edge">
<title>chunks/quickStart&#45;6UTKNCDJ.mjs&#45;&gt;chunks/MonacoEditor&#45;DUP5FULV.mjs</title>
<path fill="none" stroke="#757575" d="M634.14,-530.27C681.6,-500.06 809.61,-418.58 865.63,-382.92"/>
<polygon fill="#757575" stroke="#757575" points="867.73,-385.73 874.29,-377.41 863.98,-379.82 867.73,-385.73"/>
</g>
<!-- chunks/chunk&#45;HGH6KN2Q.mjs&#45;&gt;chunks/chunk&#45;TOGJVKJT.mjs -->
<g id="edge25" class="edge">
<title>chunks/chunk&#45;HGH6KN2Q.mjs&#45;&gt;chunks/chunk&#45;TOGJVKJT.mjs</title>
<path fill="none" stroke="#757575" d="M2342.52,-374.33C2357.81,-378.22 2374.26,-383.06 2389,-388.81 2427.74,-403.92 2469.51,-427.68 2495.93,-443.73"/>
<polygon fill="#757575" stroke="#757575" points="2494.25,-446.81 2504.61,-449.06 2497.92,-440.85 2494.25,-446.81"/>
</g>
<!-- chunks/esbuildEsm&#45;BUXFOPFO.mjs&#45;&gt;chunks/chunk&#45;TOGJVKJT.mjs -->
<g id="edge32" class="edge">
<title>chunks/esbuildEsm&#45;BUXFOPFO.mjs&#45;&gt;chunks/chunk&#45;TOGJVKJT.mjs</title>
<path fill="none" stroke="#757575" d="M1843.18,-477.84C1997.66,-473.97 2265.46,-467.27 2414.67,-463.53"/>
<polygon fill="#757575" stroke="#757575" points="2414.86,-467.02 2424.77,-463.28 2414.68,-460.03 2414.86,-467.02"/>
</g>
<!-- chunks/renderToString&#45;KCKQHKIW.mjs&#45;&gt;chunks/chunk&#45;2EC3UX5J.mjs -->
<g id="edge42" class="edge">
<title>chunks/renderToString&#45;KCKQHKIW.mjs&#45;&gt;chunks/chunk&#45;2EC3UX5J.mjs</title>
<path fill="none" stroke="#757575" d="M1524.5,-431.26C1539.41,-427.68 1554.41,-422.97 1568,-416.81 1586.46,-408.44 1587.02,-399.89 1604,-388.81 1631.66,-370.77 1664.87,-353.15 1689.09,-340.99"/>
<polygon fill="#757575" stroke="#757575" points="1690.83,-344.03 1698.22,-336.44 1687.71,-337.76 1690.83,-344.03"/>
</g>
<!-- chunks/renderToString&#45;KCKQHKIW.mjs&#45;&gt;chunks/chunk&#45;TOGJVKJT.mjs -->
<g id="edge44" class="edge">
<title>chunks/renderToString&#45;KCKQHKIW.mjs&#45;&gt;chunks/chunk&#45;TOGJVKJT.mjs</title>
<path fill="none" stroke="#757575" d="M1560.17,-444.91C1776.38,-448.49 2211.85,-455.68 2414.58,-459.02"/>
<polygon fill="#757575" stroke="#757575" points="2414.59,-462.52 2424.64,-459.19 2414.7,-455.53 2414.59,-462.52"/>
</g>
<!-- chunks/renderToString&#45;KCKQHKIW.mjs&#45;&gt;chunks/chunk&#45;26SLPZ5H.mjs -->
<g id="edge41" class="edge">
<title>chunks/renderToString&#45;KCKQHKIW.mjs&#45;&gt;chunks/chunk&#45;26SLPZ5H.mjs</title>
<path fill="none" stroke="#757575" d="M1461.29,-454.34C1513.71,-475.71 1625.98,-521.47 1684.79,-545.45"/>
<polygon fill="#757575" stroke="#757575" points="1683.52,-548.71 1694.1,-549.24 1686.16,-542.22 1683.52,-548.71"/>
</g>
<!-- chunks/renderToString&#45;KCKQHKIW.mjs&#45;&gt;chunks/chunk&#45;HGH6KN2Q.mjs -->
<g id="edge43" class="edge">
<title>chunks/renderToString&#45;KCKQHKIW.mjs&#45;&gt;chunks/chunk&#45;HGH6KN2Q.mjs</title>
<path fill="none" stroke="#757575" d="M1555.6,-431.31C1721.06,-415.78 2013.49,-388.34 2173.38,-373.34"/>
<polygon fill="#757575" stroke="#757575" points="2174.09,-376.78 2183.72,-372.37 2173.44,-369.82 2174.09,-376.78"/>
</g>
<!-- ws.mjs -->
<g id="node19" class="node">
<title>ws.mjs</title>
<path fill="none" stroke="#c6c5fe" d="M135.83,-148.31C135.83,-148.31 92.17,-148.31 92.17,-148.31 88.33,-148.31 84.5,-144.48 84.5,-140.65 84.5,-140.65 84.5,-132.98 84.5,-132.98 84.5,-129.15 88.33,-125.31 92.17,-125.31 92.17,-125.31 135.83,-125.31 135.83,-125.31 139.67,-125.31 143.5,-129.15 143.5,-132.98 143.5,-132.98 143.5,-140.65 143.5,-140.65 143.5,-144.48 139.67,-148.31 135.83,-148.31"/>
<text text-anchor="middle" x="114" y="-133.11" font-family="Arial" font-size="14.00" fill="#c6c5fe">ws.mjs</text>
</g>
<!-- ws.mjs&#45;&gt;chunks/chunk&#45;2EC3UX5J.mjs -->
<g id="edge46" class="edge">
<title>ws.mjs&#45;&gt;chunks/chunk&#45;2EC3UX5J.mjs</title>
<path fill="none" stroke="#757575" d="M143.63,-133.1C219.93,-123.54 434.59,-98.81 614,-98.81 614,-98.81 614,-98.81 1161,-98.81 1348.26,-98.81 1399.78,-125.53 1568,-207.81 1621.64,-234.05 1675.17,-280.14 1702.95,-305.95"/>
<polygon fill="#757575" stroke="#757575" points="1700.72,-308.66 1710.4,-312.96 1705.52,-303.56 1700.72,-308.66"/>
</g>
<!-- ws.mjs&#45;&gt;chunks/chunk&#45;BVBCO5XX.mjs -->
<g id="edge47" class="edge">
<title>ws.mjs&#45;&gt;chunks/chunk&#45;BVBCO5XX.mjs</title>
<path fill="none" stroke="#757575" d="M140.76,-148.38C185.79,-168.59 278.86,-210.37 329.62,-233.16"/>
<polygon fill="#757575" stroke="#757575" points="328.32,-236.41 338.88,-237.31 331.19,-230.03 328.32,-236.41"/>
</g>
<!-- ws.mjs&#45;&gt;chunks/chunk&#45;NCQNU3CH.mjs -->
<g id="edge48" class="edge">
<title>ws.mjs&#45;&gt;chunks/chunk&#45;NCQNU3CH.mjs</title>
<path fill="none" stroke="#757575" d="M143.63,-140.53C219.93,-150.09 434.59,-174.81 614,-174.81 614,-174.81 614,-174.81 894.5,-174.81 1077.26,-174.81 1289.75,-228.93 1382.99,-255.47"/>
<polygon fill="#757575" stroke="#757575" points="1382.12,-258.87 1392.7,-258.26 1384.05,-252.14 1382.12,-258.87"/>
</g>
<!-- ws.mjs&#45;&gt;chunks/chunk&#45;TOGJVKJT.mjs -->
<g id="edge49" class="edge">
<title>ws.mjs&#45;&gt;chunks/chunk&#45;TOGJVKJT.mjs</title>
<path fill="none" stroke="#757575" d="M143.72,-125.47C219.38,-96.63 430.94,-22.81 614,-22.81 614,-22.81 614,-22.81 2014.5,-22.81 2181.67,-22.81 2258.12,46.19 2389,-57.81 2512.03,-155.58 2523.08,-369.9 2523.34,-438.93"/>
<polygon fill="#757575" stroke="#757575" points="2519.84,-439.04 2523.29,-449.06 2526.84,-439.07 2519.84,-439.04"/>
</g>
</g>
</svg>
